<svg width="486" height="550" viewBox="0 0 486 550" fill="none" xmlns="http://www.w3.org/2000/svg">
<path d="M485.644 224.194C487.801 165.543 466.82 106.185 420.572 77.9355C397.744 63.9879 371.053 55.8176 344.348 57.0212C315.696 58.3097 288.723 70.0201 261.707 79.6772C234.692 89.3343 205.434 97.0515 177.587 90.198C157.438 85.2421 139.714 72.9937 119.777 67.4146C41.2258 45.4525 -27.1733 134.958 11.2633 206.112C20.6962 223.557 35.2333 237.547 47.458 253.165C59.6827 268.784 69.9334 287.645 68.2837 307.427C66.8737 323.81 57.6241 338.395 53.7748 354.367C46.4146 384.967 61.0222 418.625 86.2753 437.274C111.528 455.922 145.594 460.27 176.05 452.595C206.506 444.92 233.296 426.144 254.404 402.893C265.684 390.433 276.738 375.876 292.967 371.642C308.548 367.592 324.608 374.191 340.414 377.221C355.027 379.936 370.038 379.628 384.528 376.317C399.019 373.006 412.684 366.761 424.689 357.964C462.83 329.629 483.698 277.195 485.644 224.194Z" fill="#407BFF"/>
<path opacity="0.7" d="M485.644 224.194C487.801 165.543 466.82 106.185 420.572 77.9355C397.744 63.9879 371.053 55.8176 344.348 57.0212C315.696 58.3097 288.723 70.0201 261.707 79.6772C234.692 89.3343 205.434 97.0515 177.587 90.198C157.438 85.2421 139.714 72.9937 119.777 67.4146C41.2258 45.4525 -27.1733 134.958 11.2633 206.112C20.6962 223.557 35.2333 237.547 47.458 253.165C59.6827 268.784 69.9334 287.645 68.2837 307.427C66.8737 323.81 57.6241 338.395 53.7748 354.367C46.4146 384.967 61.0222 418.625 86.2753 437.274C111.528 455.922 145.594 460.27 176.05 452.595C206.506 444.92 233.296 426.144 254.404 402.893C265.684 390.433 276.738 375.876 292.967 371.642C308.548 367.592 324.608 374.191 340.414 377.221C355.027 379.936 370.038 379.628 384.528 376.317C399.019 373.006 412.684 366.761 424.689 357.964C462.83 329.629 483.698 277.195 485.644 224.194Z" fill="white"/>
<path d="M234.41 549.067C339.701 549.067 425.056 531.925 425.056 510.778C425.056 489.632 339.701 472.49 234.41 472.49C129.119 472.49 43.7638 489.632 43.7638 510.778C43.7638 531.925 129.119 549.067 234.41 549.067Z" fill="#407BFF"/>
<path opacity="0.5" d="M234.41 549.067C339.701 549.067 425.056 531.925 425.056 510.778C425.056 489.632 339.701 472.49 234.41 472.49C129.119 472.49 43.7638 489.632 43.7638 510.778C43.7638 531.925 129.119 549.067 234.41 549.067Z" fill="white"/>
<path d="M436.801 1.4292H299.34C294.645 1.4292 290.838 5.25201 290.838 9.96768V162.145C290.838 166.861 294.645 170.684 299.34 170.684H436.801C441.497 170.684 445.304 166.861 445.304 162.145V9.96768C445.304 5.25201 441.497 1.4292 436.801 1.4292Z" fill="white" stroke="#263238" stroke-linecap="round" stroke-linejoin="round"/>
<path d="M299.34 1.42931H436.787C439.031 1.42931 441.183 2.32442 442.769 3.91773C444.356 5.51104 445.247 7.67202 445.247 9.9253V18.7895H290.838V9.96779C290.833 8.84493 291.049 7.73208 291.474 6.6936C291.899 5.65513 292.525 4.71161 293.316 3.91762C294.107 3.12362 295.046 2.4949 296.08 2.06779C297.114 1.64069 298.222 1.42368 299.34 1.42931Z" fill="#263238" stroke="#263238" stroke-linecap="round" stroke-linejoin="round"/>
<path d="M299.256 91.7983H361.409" stroke="#263238" stroke-linecap="round" stroke-linejoin="round"/>
<path d="M299.256 99.8555H361.409" stroke="#263238" stroke-linecap="round" stroke-linejoin="round"/>
<path d="M299.256 107.913H361.409" stroke="#263238" stroke-linecap="round" stroke-linejoin="round"/>
<path d="M299.256 115.97H361.409" stroke="#263238" stroke-linecap="round" stroke-linejoin="round"/>
<path d="M299.256 124.026H361.409" stroke="#263238" stroke-linecap="round" stroke-linejoin="round"/>
<path d="M299.256 132.098H361.409" stroke="#263238" stroke-linecap="round" stroke-linejoin="round"/>
<path d="M299.256 140.155H361.409" stroke="#263238" stroke-linecap="round" stroke-linejoin="round"/>
<path d="M299.256 148.212H361.409" stroke="#263238" stroke-linecap="round" stroke-linejoin="round"/>
<path d="M299.256 156.269H361.409" stroke="#263238" stroke-linecap="round" stroke-linejoin="round"/>
<path d="M372.336 91.7983H434.489" stroke="#263238" stroke-linecap="round" stroke-linejoin="round"/>
<path d="M372.336 99.8555H434.489" stroke="#263238" stroke-linecap="round" stroke-linejoin="round"/>
<path d="M372.336 107.913H434.489" stroke="#263238" stroke-linecap="round" stroke-linejoin="round"/>
<path d="M372.336 115.97H434.489" stroke="#263238" stroke-linecap="round" stroke-linejoin="round"/>
<path d="M372.336 124.026H434.489" stroke="#263238" stroke-linecap="round" stroke-linejoin="round"/>
<path d="M372.336 132.098H434.489" stroke="#263238" stroke-linecap="round" stroke-linejoin="round"/>
<path d="M372.336 140.155H434.489" stroke="#263238" stroke-linecap="round" stroke-linejoin="round"/>
<path d="M372.336 148.212H434.489" stroke="#263238" stroke-linecap="round" stroke-linejoin="round"/>
<path d="M372.336 156.269H434.489" stroke="#263238" stroke-linecap="round" stroke-linejoin="round"/>
<path d="M434.926 25.0483H370.968V83.1043H434.926V25.0483Z" fill="#407BFF" stroke="#263238" stroke-width="2" stroke-linecap="round" stroke-linejoin="round"/>
<path d="M434.926 49.3184C432.781 49.4411 430.649 49.7394 428.553 50.2104C418.838 52.3344 416.3 66.3387 405.316 66.3387C395.587 66.3387 394.755 53.184 380.81 51.4848C377.417 50.9482 373.943 51.5662 370.94 53.2407V83.1041H434.926V49.3184Z" fill="#263238" stroke="#263238" stroke-linecap="round" stroke-linejoin="round"/>
<path d="M392.217 38.3305C392.22 39.76 391.8 41.1582 391.011 42.3479C390.222 43.5377 389.099 44.4655 387.784 45.0138C386.47 45.5622 385.023 45.7064 383.627 45.4282C382.23 45.15 380.948 44.4619 379.941 43.4511C378.935 42.4403 378.25 41.1522 377.973 39.7501C377.696 38.3479 377.839 36.8947 378.385 35.5745C378.931 34.2544 379.855 33.1267 381.04 32.3342C382.224 31.5418 383.617 31.1203 385.04 31.1231C386.944 31.1231 388.769 31.8824 390.115 33.2341C391.461 34.5857 392.217 36.419 392.217 38.3305Z" fill="white" stroke="#263238" stroke-linecap="round" stroke-linejoin="round"/>
<path d="M437.845 6.5127H295.477V12.0209H437.845V6.5127Z" fill="white" stroke="#263238" stroke-linecap="round" stroke-linejoin="round"/>
<path d="M428.962 204.456H367.331C364.907 204.456 362.583 205.422 360.87 207.143C359.156 208.864 358.194 211.198 358.194 213.631V246.737C358.194 249.171 359.156 251.505 360.87 253.225C362.583 254.946 364.907 255.913 367.331 255.913H369.22C367.302 260.161 363.58 266.675 357.7 270.54C357.7 270.54 370.207 269.662 383.235 255.913H428.934C431.357 255.913 433.681 254.946 435.394 253.225C437.108 251.505 438.07 249.171 438.07 246.737V213.631C438.07 211.203 437.112 208.873 435.404 207.153C433.697 205.433 431.38 204.463 428.962 204.456Z" fill="#263238" stroke="#263238" stroke-linecap="round" stroke-linejoin="round"/>
<path d="M387.55 229.009C387.553 228.072 387.279 227.156 386.762 226.376C386.246 225.596 385.51 224.988 384.649 224.628C383.788 224.268 382.84 224.173 381.925 224.355C381.01 224.537 380.17 224.988 379.511 225.65C378.851 226.313 378.402 227.157 378.221 228.075C378.04 228.994 378.134 229.946 378.492 230.811C378.851 231.676 379.456 232.414 380.233 232.933C381.01 233.451 381.922 233.727 382.855 233.724C384.099 233.72 385.291 233.222 386.171 232.339C387.05 231.455 387.546 230.258 387.55 229.009Z" fill="#407BFF" stroke="#263238" stroke-linecap="round" stroke-linejoin="round"/>
<path d="M403.525 229.009C403.525 228.076 403.25 227.164 402.734 226.389C402.218 225.614 401.485 225.009 400.627 224.652C399.769 224.295 398.825 224.202 397.914 224.384C397.003 224.566 396.167 225.015 395.51 225.675C394.853 226.334 394.406 227.174 394.225 228.089C394.044 229.004 394.137 229.952 394.492 230.813C394.847 231.675 395.449 232.411 396.221 232.929C396.994 233.447 397.901 233.724 398.83 233.724C400.074 233.72 401.266 233.222 402.146 232.339C403.026 231.455 403.521 230.258 403.525 229.009Z" fill="#407BFF" stroke="#263238" stroke-linecap="round" stroke-linejoin="round"/>
<path d="M419.515 229.009C419.518 228.073 419.244 227.157 418.728 226.377C418.212 225.598 417.478 224.989 416.617 224.629C415.757 224.269 414.81 224.173 413.895 224.354C412.981 224.535 412.14 224.984 411.48 225.645C410.82 226.306 410.37 227.149 410.187 228.067C410.005 228.984 410.097 229.936 410.453 230.801C410.809 231.666 411.413 232.406 412.187 232.926C412.962 233.446 413.873 233.724 414.805 233.724C416.051 233.72 417.244 233.223 418.126 232.34C419.008 231.457 419.507 230.259 419.515 229.009Z" fill="#407BFF" stroke="#263238" stroke-linecap="round" stroke-linejoin="round"/>
<path d="M90.04 21.5078H191.56C193.976 21.5078 196.293 22.4715 198.001 24.187C199.709 25.9025 200.669 28.2291 200.669 30.6552V101.328H80.9737V30.6552C80.9737 28.2365 81.9275 25.9162 83.6266 24.202C85.3256 22.4877 87.6316 21.519 90.04 21.5078Z" fill="#407BFF" stroke="#263238" stroke-linecap="round" stroke-linejoin="round"/>
<path d="M200.612 89.9287H80.9737V101.285H200.612V89.9287Z" fill="#263238" stroke="#263238" stroke-linecap="round" stroke-linejoin="round"/>
<path d="M195.141 93.8086H86.4586V97.4052H195.141V93.8086Z" fill="white" stroke="#263238" stroke-linecap="round" stroke-linejoin="round"/>
<path d="M148.865 130.356H35.3179C33.1219 130.356 31.3417 132.144 31.3417 134.349V177.806C31.3417 180.011 33.1219 181.799 35.3179 181.799H148.865C151.061 181.799 152.841 180.011 152.841 177.806V134.349C152.841 132.144 151.061 130.356 148.865 130.356Z" fill="#263238" stroke="#263238" stroke-linecap="round" stroke-linejoin="round"/>
<path d="M45.8083 137.365L46.4005 138.356C43.7215 139.857 41.2258 142.491 41.2258 145.578C41.1915 146.108 41.2629 146.64 41.4359 147.142C41.6089 147.644 41.88 148.106 42.2332 148.502C42.5865 148.898 43.0148 149.219 43.4931 149.446C43.9714 149.673 44.4901 149.802 45.0187 149.826C45.4135 149.826 45.6814 149.627 45.6814 149.231C45.6814 148.834 45.484 148.707 45.0892 148.636C44.5568 148.491 44.093 148.161 43.7805 147.705C43.468 147.248 43.3271 146.695 43.3831 146.144C43.3934 145.704 43.4926 145.271 43.6747 144.871C43.8568 144.471 44.118 144.113 44.4425 143.817C44.767 143.522 45.1479 143.296 45.562 143.153C45.9762 143.01 46.415 142.954 46.8517 142.986C47.3268 142.988 47.7967 143.085 48.2337 143.272C48.6706 143.46 49.0658 143.733 49.3957 144.076C49.7257 144.419 49.9838 144.826 50.1547 145.271C50.3256 145.716 50.4059 146.191 50.3908 146.668C50.3839 147.267 50.2568 147.859 50.0171 148.408C49.7774 148.957 49.4301 149.451 48.9958 149.862C48.5615 150.273 48.0491 150.592 47.4894 150.8C46.9296 151.008 46.3339 151.1 45.7378 151.072C44.9967 151.12 44.2538 151.011 43.5572 150.753C42.8607 150.494 42.226 150.091 41.6942 149.571C41.1625 149.05 40.7456 148.423 40.4706 147.73C40.1956 147.038 40.0686 146.294 40.0978 145.549C40.0555 141.967 42.805 139.078 45.8083 137.365ZM57.9202 137.365L58.5124 138.356C55.8193 139.857 53.3377 142.491 53.3377 145.578C53.3015 146.108 53.3715 146.641 53.5438 147.144C53.7161 147.647 53.987 148.11 54.3406 148.506C54.6942 148.902 55.1233 149.223 55.6025 149.45C56.0818 149.676 56.6014 149.804 57.1306 149.826C57.5254 149.826 57.7933 149.627 57.7933 149.231C57.7933 148.834 57.5959 148.707 57.2011 148.636C56.6687 148.491 56.2049 148.161 55.8924 147.705C55.5799 147.248 55.439 146.695 55.495 146.144C55.5032 145.704 55.6011 145.27 55.7825 144.869C55.964 144.468 56.2252 144.108 56.5501 143.813C56.875 143.517 57.2567 143.291 57.6718 143.149C58.0868 143.007 58.5265 142.951 58.9636 142.986C59.4387 142.988 59.9086 143.085 60.3456 143.272C60.7825 143.46 61.1777 143.733 61.5076 144.076C61.8376 144.419 62.0957 144.826 62.2666 145.271C62.4375 145.716 62.5178 146.191 62.5027 146.668C62.4939 147.267 62.3655 147.857 62.1251 148.405C61.8848 148.953 61.5373 149.447 61.1035 149.858C60.6696 150.268 60.158 150.588 59.5991 150.796C59.0402 151.005 58.4453 151.098 57.8497 151.072C57.1091 151.118 56.3672 151.007 55.6716 150.748C54.9761 150.489 54.3422 150.086 53.811 149.566C53.2797 149.046 52.8628 148.419 52.587 147.728C52.3112 147.036 52.1827 146.294 52.2097 145.549C52.1533 141.967 54.9028 139.078 57.9202 137.365Z" fill="#407BFF"/>
<path d="M69.5104 147.843H138.657" stroke="white" stroke-linecap="round" stroke-linejoin="round"/>
<path d="M69.5104 153.805H138.657" stroke="white" stroke-linecap="round" stroke-linejoin="round"/>
<path d="M69.5104 159.766H138.657" stroke="white" stroke-linecap="round" stroke-linejoin="round"/>
<path d="M69.5104 165.742H138.657" stroke="white" stroke-linecap="round" stroke-linejoin="round"/>
<path d="M126.423 261.562C140.695 259.222 150.376 245.707 148.046 231.374C145.717 217.041 132.259 207.319 117.987 209.658C103.715 211.998 94.0335 225.513 96.3629 239.846C98.6924 254.178 112.151 263.901 126.423 261.562Z" fill="#263238" stroke="#263238" stroke-linecap="round" stroke-linejoin="round"/>
<path d="M138.813 250.282C146.865 241.074 145.959 227.054 136.791 218.968C127.622 210.881 113.662 211.79 105.61 220.998C97.5574 230.206 98.4626 244.226 107.631 252.312C116.8 260.398 130.76 259.489 138.813 250.282Z" fill="white" stroke="#263238" stroke-linecap="round" stroke-linejoin="round"/>
<path d="M122.216 219.564V235.607H133.017" stroke="#263238" stroke-width="2" stroke-linecap="round" stroke-linejoin="round"/>
<path d="M286.03 235.664C286.03 235.664 301.046 267.85 301.046 269.549C301.046 271.248 287.722 278.526 285.184 280.056C283.216 281.182 281.187 282.198 279.107 283.1L280.63 298.01C280.63 298.01 303.57 292.757 313.187 287.504C322.803 282.25 322.464 276.317 320.237 267.51C318.009 258.702 303.19 224.662 303.19 224.662L286.03 235.664Z" fill="white"/>
<g style="mix-blend-mode:multiply" opacity="0.5">
<path d="M313.144 287.504C322.761 282.25 322.422 276.317 320.194 267.51C317.967 258.702 303.147 224.662 303.147 224.662L300.75 226.191L299.989 227.607C299.989 227.607 313.821 261.704 314.653 273.06C315.217 280.693 299.918 290.208 289.809 295.646C297.31 293.649 307.518 290.576 313.144 287.504Z" fill="#407BFF"/>
</g>
<path d="M286.03 235.664C286.03 235.664 301.046 267.85 301.046 269.549C301.046 271.248 287.722 278.526 285.184 280.056C283.216 281.182 281.187 282.198 279.107 283.1L280.63 298.01C280.63 298.01 303.57 292.757 313.187 287.504C322.803 282.25 322.464 276.317 320.237 267.51C318.009 258.702 303.19 224.662 303.19 224.662L286.03 235.664Z" stroke="#263238" stroke-linecap="round" stroke-linejoin="round"/>
<path d="M177.686 228.556C177.686 228.556 166.73 268.869 166.406 275.992C166.081 283.114 188.162 297.161 188.966 298.01C189.769 298.86 187.711 273.514 187.711 273.514L195.198 236.698L177.686 228.556Z" fill="white"/>
<g style="mix-blend-mode:multiply" opacity="0.5">
<path d="M182.705 231.855L182.465 230.765L177.686 228.556C177.686 228.556 166.73 268.869 166.406 275.992C166.081 283.114 188.162 297.161 188.966 298.01C189.29 298.35 189.163 294.555 188.895 289.868C182.324 284.275 172.892 276.402 171.792 273.089" fill="#407BFF"/>
</g>
<path d="M177.686 228.556C177.686 228.556 166.73 268.869 166.406 275.992C166.081 283.114 188.162 297.161 188.966 298.01C189.769 298.86 187.711 273.514 187.711 273.514L195.198 236.698L177.686 228.556Z" stroke="#263238" stroke-linecap="round" stroke-linejoin="round"/>
<path d="M229.136 188.058C229.136 188.058 224.906 191.116 216.658 191.456C208.409 191.796 208.015 185.792 197.764 185.792C185.342 185.792 169.761 225.256 169.761 225.256C169.761 225.256 177.516 232.888 185.116 236.103C189.32 237.952 193.741 239.261 198.272 239.997L199.456 265.924H283.125L284.126 239.997L310.282 222.962C310.282 222.962 297.451 199.924 291.219 191.286C284.987 182.649 274.51 185.863 271.31 188.058C268.109 190.253 258.62 190.777 255.123 190.267C250.561 189.253 246.053 188.01 241.615 186.543C241.615 186.543 236.229 182.04 229.136 188.058Z" fill="#407BFF" stroke="#263238" stroke-linecap="round" stroke-linejoin="round"/>
<path d="M199.118 197.206L198.779 240.238" stroke="#263238" stroke-width="0.5" stroke-linecap="round" stroke-linejoin="round"/>
<path d="M202.149 201.113C202.149 201.113 203.333 222.113 207.789 233.809" stroke="#263238" stroke-width="0.5" stroke-linecap="round" stroke-linejoin="round"/>
<path d="M208.565 235.494C209.527 238.349 210.71 241.123 212.104 243.792" stroke="#263238" stroke-width="0.5" stroke-linecap="round" stroke-linejoin="round"/>
<path d="M204.842 198.734C206.443 206.37 208.703 213.851 211.596 221.093" stroke="#263238" stroke-width="0.5" stroke-linecap="round" stroke-linejoin="round"/>
<path d="M277.57 202.459C277.57 202.459 273.523 219.069 269.97 226.531" stroke="#263238" stroke-width="0.5" stroke-linecap="round" stroke-linejoin="round"/>
<path d="M284.126 240.068L283.957 206.522" stroke="#263238" stroke-width="0.5" stroke-linecap="round" stroke-linejoin="round"/>
<path d="M282.279 207.202C282.279 207.202 279.234 228.442 271.817 239.558" stroke="#263238" stroke-width="0.5" stroke-linecap="round" stroke-linejoin="round"/>
<path d="M278.571 235.324C278.571 235.324 275.187 241.767 272.832 245.151" stroke="#263238" stroke-width="0.5" stroke-linecap="round" stroke-linejoin="round"/>
<path d="M224.413 190.607C224.413 190.607 226.782 205.178 230.152 212.626C233.522 220.074 239.429 221.603 244.491 219.408C249.553 217.214 253.262 206.353 252.951 192.504" stroke="#263238" stroke-width="0.5" stroke-linecap="round" stroke-linejoin="round"/>
<path d="M212.442 160.106C212.442 160.106 209.227 154.527 206.703 157.402C204.179 160.276 208.734 166.889 211.258 169.084C213.782 171.278 215.643 169.933 215.488 167.568C215.333 165.204 212.442 160.106 212.442 160.106Z" fill="#407BFF" stroke="#263238" stroke-linecap="round" stroke-linejoin="round"/>
<path opacity="0.5" d="M212.442 160.106C212.442 160.106 209.227 154.527 206.703 157.402C204.179 160.276 208.734 166.889 211.258 169.084C213.782 171.278 215.643 169.933 215.488 167.568C215.333 165.204 212.442 160.106 212.442 160.106Z" fill="white"/>
<path d="M212.442 160.106C212.442 160.106 209.227 154.527 206.703 157.402C204.179 160.276 208.734 166.889 211.258 169.084C213.782 171.278 215.643 169.933 215.488 167.568C215.333 165.204 212.442 160.106 212.442 160.106Z" stroke="#263238" stroke-linecap="round" stroke-linejoin="round"/>
<path d="M263.47 160.106C263.47 160.106 266.671 154.527 269.209 157.402C271.747 160.276 267.178 166.889 264.654 169.084C262.131 171.278 260.255 169.933 260.424 167.568C260.594 165.204 263.47 160.106 263.47 160.106Z" fill="#407BFF" stroke="#263238" stroke-linecap="round" stroke-linejoin="round"/>
<path opacity="0.5" d="M263.47 160.106C263.47 160.106 266.671 154.527 269.209 157.402C271.747 160.276 267.178 166.889 264.654 169.084C262.131 171.278 260.255 169.933 260.424 167.568C260.594 165.204 263.47 160.106 263.47 160.106Z" fill="white"/>
<path d="M263.47 160.106C263.47 160.106 266.671 154.527 269.209 157.402C271.747 160.276 267.178 166.889 264.654 169.084C262.131 171.278 260.255 169.933 260.424 167.568C260.594 165.204 263.47 160.106 263.47 160.106Z" stroke="#263238" stroke-linecap="round" stroke-linejoin="round"/>
<path d="M227.614 186.883C229.206 194.113 231.236 201.239 233.691 208.222C236.736 215.84 242.461 215.84 244.83 210.926C247.199 206.013 248.707 187.704 248.707 187.704C248.707 187.704 232.845 189.927 227.614 186.883Z" fill="white" stroke="#263238" stroke-linecap="round" stroke-linejoin="round"/>
<path d="M212.781 161.975C212.781 161.975 217.166 177.551 225.47 186.713C233.775 195.875 236.75 198.041 241.164 197.375C245.577 196.71 250.272 190.947 256.843 178.967C263.414 166.988 263.893 157.798 264.443 156.949C264.993 156.099 263.033 139.164 253.642 131.871C244.252 124.579 233.733 121.379 224.624 129.337C215.516 137.295 209.735 150.279 212.781 161.975Z" fill="white"/>
<g style="mix-blend-mode:multiply" opacity="0.5">
<path d="M253.6 131.814C244.153 124.536 233.691 121.322 224.582 129.28C215.474 137.238 209.735 150.279 212.78 161.975C212.78 161.975 213.612 164.977 215.262 169.055C215.257 168.533 215.328 168.013 215.474 167.512C217.49 161.097 223.44 148.679 243.462 154.371C259.367 158.874 257.421 172.921 255.941 180.412L256.801 178.854C263.385 166.832 263.851 157.685 264.401 156.835C264.95 155.986 263.047 139.107 253.6 131.814Z" fill="#407BFF"/>
</g>
<path d="M212.781 161.975C212.781 161.975 217.166 177.551 225.47 186.713C233.775 195.875 236.75 198.041 241.164 197.375C245.577 196.71 250.272 190.947 256.843 178.967C263.414 166.988 263.893 157.798 264.443 156.949C264.993 156.099 263.033 139.164 253.642 131.871C244.252 124.579 233.733 121.379 224.624 129.337C215.516 137.295 209.735 150.279 212.781 161.975Z" stroke="#263238" stroke-linecap="round" stroke-linejoin="round"/>
<path d="M241.121 170.103C240.598 173.41 240.316 176.751 240.275 180.1C240.445 183.484 241.46 184.504 239.937 184.844C238.414 185.183 236.736 182.805 236.736 182.805" stroke="#263238" stroke-linecap="round" stroke-linejoin="round"/>
<path d="M224.244 172.822C225.221 173.531 226.389 173.926 227.595 173.957C228.8 173.987 229.986 173.651 230.998 172.992" stroke="#263238" stroke-linecap="round" stroke-linejoin="round"/>
<path d="M245.676 172.822C246.651 173.53 247.817 173.924 249.019 173.955C250.222 173.985 251.406 173.649 252.416 172.992" stroke="#263238" stroke-linecap="round" stroke-linejoin="round"/>
<path d="M235.016 167.115C235.016 167.115 231.801 159.143 221.184 162.867" stroke="#263238" stroke-linecap="round" stroke-linejoin="round"/>
<path d="M243.857 166.138C243.857 166.138 246.55 158.336 256.166 162.91" stroke="#263238" stroke-linecap="round" stroke-linejoin="round"/>
<path d="M237.061 173.402C237.061 177.764 232.083 181.289 225.936 181.289C219.788 181.289 214.797 177.764 214.797 173.402C214.797 169.041 219.45 167.229 225.597 167.229C231.745 167.229 237.061 169.055 237.061 173.402Z" stroke="#263238" stroke-linecap="round" stroke-linejoin="round"/>
<path d="M262.709 173.402C262.709 177.764 257.717 181.289 251.57 181.289C245.422 181.289 240.445 177.764 240.445 173.402C240.445 169.041 245.084 167.229 251.231 167.229C257.379 167.229 262.709 169.055 262.709 173.402Z" stroke="#263238" stroke-linecap="round" stroke-linejoin="round"/>
<path d="M120.538 309.239L119.847 480.901C119.847 481.442 120.061 481.96 120.442 482.343C120.823 482.725 121.339 482.94 121.878 482.94C122.403 482.94 122.907 482.735 123.284 482.367C123.661 482 123.879 481.499 123.894 480.972L128.773 309.48L120.538 309.239Z" fill="white" stroke="#263238" stroke-linecap="round" stroke-linejoin="round"/>
<path d="M109.033 349.369L108.37 526.836C108.368 527.104 108.419 527.37 108.521 527.618C108.622 527.867 108.772 528.092 108.961 528.282C109.149 528.472 109.374 528.622 109.621 528.724C109.868 528.825 110.133 528.877 110.4 528.875C110.925 528.875 111.429 528.672 111.807 528.308C112.185 527.944 112.409 527.447 112.431 526.921L117.295 349.595L109.033 349.369Z" fill="white" stroke="#263238" stroke-linecap="round" stroke-linejoin="round"/>
<path d="M356.854 309.239L357.545 480.901C357.547 481.168 357.496 481.433 357.396 481.68C357.295 481.928 357.147 482.152 356.96 482.342C356.772 482.531 356.549 482.682 356.304 482.785C356.058 482.887 355.795 482.94 355.529 482.94C355.002 482.94 354.496 482.735 354.118 482.368C353.739 482.001 353.517 481.5 353.498 480.972L348.634 309.48L356.854 309.239Z" fill="white" stroke="#263238" stroke-linecap="round" stroke-linejoin="round"/>
<path d="M368.374 349.369L369.065 526.836C369.067 527.104 369.015 527.37 368.914 527.618C368.813 527.867 368.663 528.092 368.474 528.282C368.285 528.472 368.061 528.622 367.814 528.724C367.566 528.825 367.302 528.877 367.034 528.875C366.512 528.875 366.009 528.672 365.633 528.307C365.257 527.943 365.036 527.446 365.018 526.921L360.14 349.595L368.374 349.369Z" fill="white" stroke="#263238" stroke-linecap="round" stroke-linejoin="round"/>
<path d="M189.149 356.746L188.74 514.262C188.695 514.655 188.804 515.05 189.043 515.364C189.283 515.678 189.634 515.887 190.023 515.947C190.403 515.894 190.749 515.698 190.99 515.398C191.231 515.098 191.349 514.717 191.32 514.333L194.38 356.93L189.149 356.746Z" fill="white" stroke="#263238" stroke-linecap="round" stroke-linejoin="round"/>
<path d="M288.427 351.677L288.808 489.142C288.84 489.475 288.744 489.807 288.54 490.071C288.335 490.334 288.037 490.509 287.708 490.558C287.38 490.509 287.083 490.334 286.881 490.07C286.678 489.806 286.586 489.473 286.622 489.142L284.014 351.79L288.427 351.677Z" fill="white" stroke="#263238" stroke-linecap="round" stroke-linejoin="round"/>
<path d="M187.612 351.677L187.993 489.142C188.025 489.475 187.929 489.807 187.725 490.071C187.52 490.334 187.222 490.509 186.893 490.558C186.565 490.509 186.268 490.334 186.066 490.07C185.863 489.806 185.771 489.473 185.807 489.142L183.199 351.79L187.612 351.677Z" fill="white" stroke="#263238" stroke-linecap="round" stroke-linejoin="round"/>
<path d="M285.593 356.746L286.03 514.262C286.075 514.655 285.966 515.05 285.727 515.364C285.487 515.678 285.136 515.887 284.747 515.947C284.368 515.891 284.025 515.694 283.784 515.395C283.544 515.095 283.424 514.716 283.45 514.333L280.39 356.93L285.593 356.746Z" fill="white" stroke="#263238" stroke-linecap="round" stroke-linejoin="round"/>
<path d="M236.68 367.777C271.333 367.777 299.425 361.329 299.425 353.376C299.425 345.423 271.333 338.975 236.68 338.975C202.027 338.975 173.935 345.423 173.935 353.376C173.935 361.329 202.027 367.777 236.68 367.777Z" fill="white" stroke="#263238" stroke-linecap="round" stroke-linejoin="round"/>
<path d="M206.125 475.619C206.125 475.619 202.84 480.349 205.195 482.699C207.549 485.05 209.89 484.115 209.65 486.48C209.411 488.845 205.66 496.859 202.375 505.355C199.089 513.851 205.9 522.347 212.245 519.997C218.59 517.646 217.885 494.027 218.815 489.779C219.746 485.531 220.465 484.823 220.225 480.816C219.986 476.809 219.76 472.561 216.7 472.079C213.641 471.598 207.535 473.977 206.125 475.619Z" fill="white" stroke="#263238" stroke-linecap="round" stroke-linejoin="round"/>
<path d="M216.207 513.483C211.977 511.869 205.491 512.194 201.839 512.563C203.066 517.901 207.761 521.653 212.245 519.997C214.12 519.303 215.347 516.782 216.207 513.483Z" fill="#407BFF" stroke="#263238" stroke-linecap="round" stroke-linejoin="round"/>
<path d="M198.85 465.24C198.85 465.24 205.66 476.808 207.535 479.867C209.411 482.926 215.77 481.991 216.475 477.743C217.18 473.495 213.88 461.7 213.88 461.7L199.78 465.24H198.85Z" fill="white" stroke="#263238" stroke-linecap="round" stroke-linejoin="round"/>
<path d="M182.635 446.832C182.635 446.832 180.745 449.905 181.69 452.029C182.635 454.153 185.215 460.284 186.865 463.357C188.514 466.429 196.03 468.313 204.715 466.897C213.401 465.481 218.35 461.459 218.59 457.919C218.829 454.379 217.18 449.664 215.995 444C214.811 438.336 211.765 438.577 207.535 438.577C203.305 438.577 186.16 443.533 182.635 446.832Z" fill="#407BFF" stroke="#263238" stroke-linecap="round" stroke-linejoin="round"/>
<path d="M208.015 377.448C208.142 371.642 211.483 368.782 211.737 364.803C212.135 359.543 211.702 354.252 210.454 349.128L204.024 340.306C185.525 340.547 172.271 340.858 172.06 340.929C171.355 341.156 170.875 345.177 170.41 348.476C170.41 348.476 162.556 349.482 163.966 371.43C164.164 374.488 172.088 409.874 172.666 413.91C176.191 438.562 184.045 450.91 184.045 450.91C184.045 450.91 184.75 453.983 193.915 453.275C203.08 452.567 212.245 446.435 212.245 446.435C212.245 446.435 207.535 398.447 208.015 377.448Z" fill="#263238" stroke="#263238" stroke-linecap="round" stroke-linejoin="round"/>
<path d="M169.141 344.88C169.141 344.88 159.426 346.296 153.476 353.121C147.526 359.946 152.574 364.449 164.136 363.231C175.698 362.014 189.036 350.133 189.6 349.496C190.164 348.859 177.545 340.788 169.141 344.88Z" fill="white" stroke="#263238" stroke-linecap="round" stroke-linejoin="round"/>
<path d="M186.385 349.128C192.575 349.448 198.716 350.397 204.715 351.96C212.71 354.325 226.81 359.04 230.095 359.04C233.381 359.04 232.45 346.763 232.45 344.413C232.45 342.062 190.15 340.632 184.975 340.632C179.801 340.632 186.385 349.128 186.385 349.128Z" fill="white" stroke="#263238" stroke-linecap="round" stroke-linejoin="round"/>
<path d="M232.45 344.413C232.45 344.413 228.685 346.296 227.275 353.376C225.865 360.456 223.99 364.237 226.81 366.12C229.63 368.003 241.855 369.419 243.73 367.536C245.605 365.653 250.78 356.208 251.725 350.077C252.669 343.946 232.45 344.413 232.45 344.413Z" fill="#407BFF" stroke="#263238" stroke-linecap="round" stroke-linejoin="round"/>
<path d="M248.425 346.763C246.24 349.282 244.495 352.155 243.265 355.259C242.268 358.509 241.482 361.82 240.91 365.171C245.408 366.41 249.806 367.991 254.065 369.901C261.595 373.2 274.285 375.565 286.495 378.397C298.706 381.229 302.005 384.061 306.235 384.061C310.465 384.061 315.64 380.747 322.225 372.733C328.809 364.718 323.155 347.712 316.585 342.515C310.014 337.319 274.75 333.085 270.055 334.501C265.359 335.917 248.425 346.763 248.425 346.763Z" fill="#263238" stroke="#263238" stroke-linecap="round" stroke-linejoin="round"/>
<path d="M160.244 363.359C159.315 359.123 157.434 355.156 154.745 351.762C154.308 352.172 153.885 352.597 153.476 353.064C148.245 359.04 151.516 363.288 160.244 363.359Z" fill="#407BFF" stroke="#263238" stroke-linecap="round" stroke-linejoin="round"/>
<path d="M207.296 367.097C207.296 367.097 202.445 419.22 192.547 427.334" stroke="white" stroke-width="0.5" stroke-linecap="round" stroke-linejoin="round"/>
<path d="M203.869 416.572C203.869 416.572 200.02 433.564 189.924 440.319" stroke="white" stroke-width="0.5" stroke-linecap="round" stroke-linejoin="round"/>
<path d="M266.29 357.624C266.29 357.624 251.245 358.573 261.115 365.171C270.985 371.77 288.85 376.032 288.85 376.032" stroke="white" stroke-width="0.5" stroke-linecap="round" stroke-linejoin="round"/>
<path d="M375.509 339.768L370.433 335.18L358.701 309.692C358.145 308.533 357.271 307.556 356.183 306.877C355.094 306.197 353.835 305.843 352.554 305.855H124.698C123.414 305.84 122.152 306.193 121.061 306.873C119.969 307.553 119.094 308.531 118.536 309.692L103.914 341.439L101.503 340.547V347.811L101.616 347.726C101.76 348.695 102.25 349.579 102.994 350.212C103.739 350.845 104.687 351.184 105.663 351.167H371.575C372.602 351.191 373.598 350.812 374.353 350.112C375.109 349.412 375.563 348.445 375.621 347.415L375.509 339.768Z" fill="#263238" stroke="#263238" stroke-linecap="round" stroke-linejoin="round"/>
<path d="M371.575 344.526H105.663C105.004 344.552 104.35 344.41 103.761 344.113C103.172 343.816 102.668 343.374 102.296 342.827C101.924 342.281 101.696 341.649 101.634 340.99C101.572 340.331 101.677 339.667 101.94 339.06L118.536 303.051C119.091 301.888 119.966 300.908 121.058 300.228C122.15 299.547 123.413 299.196 124.698 299.214H352.554C353.836 299.199 355.096 299.551 356.185 300.231C357.275 300.911 358.148 301.89 358.701 303.051L375.297 339.06C375.56 339.667 375.666 340.331 375.604 340.99C375.541 341.649 375.314 342.281 374.941 342.827C374.569 343.374 374.065 343.816 373.476 344.113C372.888 344.41 372.233 344.552 371.575 344.526Z" fill="white" stroke="#263238" stroke-linecap="round" stroke-linejoin="round"/>
<g style="mix-blend-mode:multiply" opacity="0.5">
<path d="M119.128 320.341C119.128 320.341 113.108 324.489 116.872 326.005C120.637 327.52 163.91 326.387 169.183 324.872C174.457 323.357 180.463 309.381 180.463 307.115C180.463 304.849 172.878 303.221 170.086 303.094C167.294 302.966 130.408 305.218 130.408 305.218L119.128 320.341Z" fill="#407BFF"/>
</g>
<g style="mix-blend-mode:multiply" opacity="0.5">
<path d="M334.379 327.52C342.898 327.52 349.804 324.642 349.804 321.091C349.804 317.541 342.898 314.663 334.379 314.663C325.86 314.663 318.953 317.541 318.953 321.091C318.953 324.642 325.86 327.52 334.379 327.52Z" fill="#407BFF"/>
</g>
<g style="mix-blend-mode:multiply" opacity="0.5">
<path d="M236.172 335.464C266.722 335.464 291.487 330.81 291.487 325.07C291.487 319.33 266.722 314.677 236.172 314.677C205.623 314.677 180.858 319.33 180.858 325.07C180.858 330.81 205.623 335.464 236.172 335.464Z" fill="#407BFF"/>
</g>
<path d="M323.099 295.802C323.099 295.802 322.084 291.738 318.714 293.097C315.344 294.456 315.682 303.434 316.345 308.517C317.008 313.601 321.576 311.222 321.576 311.222V308.177C321.576 308.177 319.898 309.523 319.052 307.668C318.206 305.813 318.375 296.481 319.221 296.651C320.067 296.821 321.745 299.696 321.745 299.696C321.745 299.696 322.253 299.37 323.099 295.802Z" fill="#407BFF" stroke="#263238" stroke-linecap="round" stroke-linejoin="round"/>
<path d="M320.674 296.481V318.74C320.674 321.36 326.666 323.484 334.069 323.484C341.471 323.484 347.45 321.36 347.45 318.74V296.481H320.674Z" fill="#407BFF" stroke="#263238" stroke-linecap="round" stroke-linejoin="round"/>
<path d="M347.45 296.481C347.45 298.747 341.457 300.573 334.069 300.573C326.68 300.573 320.674 298.747 320.674 296.481C320.674 294.215 326.666 292.389 334.069 292.389C341.471 292.389 347.45 294.229 347.45 296.481Z" fill="white" stroke="#263238" stroke-linecap="round" stroke-linejoin="round"/>
<path d="M345.701 296.481C345.701 298.449 340.484 300.035 334.069 300.035C327.653 300.035 322.422 298.449 322.422 296.481C322.422 294.513 327.639 292.927 334.069 292.927C340.498 292.927 345.701 294.513 345.701 296.481Z" fill="white" stroke="#263238" stroke-linecap="round" stroke-linejoin="round"/>
<path d="M325.087 298.747C330.948 300.464 337.175 300.464 343.036 298.747C337.175 297.029 330.948 297.029 325.087 298.747Z" fill="#263238" stroke="#263238" stroke-linecap="round" stroke-linejoin="round"/>
<path d="M117.464 306.648L117.634 314.266L168.746 314.776V305.968L117.464 306.648Z" fill="white" stroke="#263238" stroke-linecap="round" stroke-linejoin="round"/>
<path d="M168.746 314.776L176.177 298.69V293.946L168.408 307.497L168.746 314.776Z" fill="white" stroke="#263238" stroke-linecap="round" stroke-linejoin="round"/>
<path d="M117.464 313.586L117.634 321.219L168.746 321.728V312.921L117.464 313.586Z" fill="white" stroke="#263238" stroke-linecap="round" stroke-linejoin="round"/>
<path d="M168.746 321.728L176.177 305.628V300.885L168.408 314.436L168.746 321.728Z" fill="white" stroke="#263238" stroke-linecap="round" stroke-linejoin="round"/>
<path d="M137.204 287.334C137.204 287.334 138.389 284.969 136.697 283.95C135.005 282.93 133.158 285.366 132.143 286.144C131.127 286.923 109.879 301.055 109.202 303.264C108.525 305.473 109.202 310.344 113.756 310.882C118.311 311.42 122.357 308.347 124.388 307.838C126.418 307.328 127.208 307.158 127.208 307.158L141.209 288.183L137.204 287.334Z" fill="white" stroke="#263238" stroke-linecap="round" stroke-linejoin="round"/>
<path d="M113.756 310.896C118.31 311.406 122.357 308.362 124.388 307.852C126.418 307.342 127.208 307.172 127.208 307.172L127.715 306.478L114.56 303.788C113.845 303.111 112.925 302.694 111.947 302.601C110.969 302.509 109.988 302.747 109.16 303.278C108.525 305.459 109.202 310.372 113.756 310.896Z" fill="white" stroke="#263238" stroke-linecap="round" stroke-linejoin="round"/>
<path d="M114.602 303.816H154.082C166.406 303.816 170.114 303.136 170.114 303.136L177.7 287.376C177.7 287.376 153.73 288.905 146.327 288.395C143.268 288.307 140.222 287.966 137.219 287.376L114.602 303.816Z" fill="white" stroke="#263238" stroke-linecap="round" stroke-linejoin="round"/>
<path d="M114.602 303.816L115.279 306.86C115.279 306.86 147.328 307.03 155.76 307.03C164.192 307.03 170.607 307.37 170.607 307.37L170.1 303.122L114.602 303.816Z" fill="white" stroke="#263238" stroke-linecap="round" stroke-linejoin="round"/>
<path d="M170.607 307.328L177.686 291.058V287.334L170.1 303.094L170.607 307.328Z" fill="white" stroke="#263238" stroke-linecap="round" stroke-linejoin="round"/>
<path d="M284.479 326.359H187.823C187.609 326.361 187.397 326.32 187.199 326.239C187 326.158 186.82 326.038 186.668 325.887C186.516 325.736 186.395 325.555 186.313 325.357C186.23 325.158 186.188 324.946 186.188 324.73C186.188 324.515 186.23 324.303 186.313 324.104C186.395 323.906 186.516 323.725 186.668 323.574C186.82 323.423 187 323.303 187.199 323.222C187.397 323.141 187.609 323.1 187.823 323.102H284.479C284.692 323.1 284.904 323.141 285.102 323.222C285.299 323.303 285.479 323.423 285.63 323.575C285.781 323.726 285.9 323.907 285.981 324.105C286.062 324.304 286.102 324.516 286.1 324.73C286.102 324.945 286.062 325.157 285.981 325.356C285.9 325.554 285.781 325.735 285.63 325.886C285.479 326.038 285.299 326.158 285.102 326.239C284.904 326.32 284.692 326.361 284.479 326.359Z" fill="white" stroke="#263238" stroke-linecap="round" stroke-linejoin="round"/>
<path d="M285.297 323.074H186.992C186.632 323.074 186.285 322.937 186.023 322.689C185.761 322.442 185.603 322.103 185.582 321.743L180.238 257.244C180.214 257.044 180.232 256.841 180.292 256.649C180.352 256.458 180.452 256.281 180.586 256.131C180.719 255.981 180.883 255.861 181.066 255.779C181.249 255.698 181.447 255.656 181.648 255.658H290.655C290.855 255.656 291.053 255.698 291.236 255.779C291.42 255.861 291.583 255.981 291.717 256.131C291.85 256.281 291.95 256.458 292.01 256.649C292.07 256.841 292.089 257.044 292.065 257.244L286.721 321.743C286.699 322.106 286.539 322.446 286.274 322.694C286.009 322.942 285.659 323.078 285.297 323.074Z" fill="white" stroke="#263238" stroke-linecap="round" stroke-linejoin="round"/>
<path d="M245.422 290.477C245.422 294.329 241.262 297.444 236.144 297.444C231.026 297.444 226.852 294.329 226.852 290.477C226.852 286.626 231.012 283.525 236.144 283.525C241.277 283.525 245.422 286.64 245.422 290.477Z" fill="white" stroke="#263238" stroke-linecap="round" stroke-linejoin="round"/>
<path d="M341.485 240.096C342.993 238.915 344.053 237.251 344.489 235.381C344.805 233.978 344.772 232.519 344.39 231.133" stroke="#263238" stroke-linecap="round" stroke-linejoin="round"/>
<path d="M330.233 290.59C330.233 290.59 339.61 284.926 336.55 278.455C333.491 271.984 323.141 267.694 323.141 257.612C323.141 248.917 332.348 245.703 338.355 242.22" stroke="#263238" stroke-linecap="round" stroke-linejoin="round"/>
<path d="M338.891 290.407C338.891 290.407 344.122 286.909 344.122 281.358C344.122 277.634 340.16 275.199 334.929 269.209" stroke="#263238" stroke-linecap="round" stroke-linejoin="round"/>
<path d="M332.038 265.584C332.038 265.584 328.612 262.879 331.136 257.796" stroke="#263238" stroke-linecap="round" stroke-linejoin="round"/>
<path d="M252.655 117.258C254.333 116.904 257.929 115.516 260.354 109.866C260.391 109.781 260.411 109.689 260.413 109.596C260.415 109.502 260.398 109.409 260.364 109.323C260.33 109.236 260.279 109.156 260.215 109.089C260.15 109.022 260.073 108.969 259.987 108.932C259.815 108.86 259.621 108.858 259.448 108.927C259.274 108.996 259.134 109.129 259.057 109.3C256.829 114.483 253.642 115.63 252.317 115.884C254.689 113.002 255.998 109.386 256.025 105.647C256.025 95.8197 246.959 87.8618 235.778 87.8618C224.596 87.8618 215.53 95.8197 215.53 105.647C215.538 109.235 216.727 112.72 218.914 115.559C216.785 115.446 213.189 116.352 208.635 121.69C208.505 121.825 208.432 122.005 208.432 122.193C208.432 122.38 208.505 122.561 208.635 122.695C208.766 122.805 208.93 122.865 209.1 122.865C209.203 122.865 209.304 122.843 209.397 122.799C209.49 122.754 209.571 122.69 209.636 122.61C215.46 115.799 219.309 116.946 220.084 117.258C218.768 117.985 217.534 118.854 216.404 119.849C209.904 125.726 205.942 136.841 206.45 146.102C207.02 152.244 209.237 158.116 212.865 163.094C217.586 159.701 221.501 155.3 224.328 150.208C226.436 146.468 228.319 142.605 229.968 138.64C229.968 142.788 230.504 147.801 232.676 151.384C234.242 154.213 236.537 156.568 239.32 158.202C242.103 159.837 245.272 160.69 248.496 160.673C249.609 160.689 250.72 160.579 251.809 160.347C251.905 160.323 251.995 160.279 252.072 160.218C252.15 160.157 252.214 160.08 252.26 159.993C257.703 161.154 263.117 161.055 263.949 159.894C265.289 158.039 267.192 152.247 267.827 145.167C268.983 133.16 261.454 122.738 252.655 117.258ZM233.987 150.52C231.251 146.031 231.336 138.71 231.66 134.505L231.844 134.023C231.974 138.349 233.072 142.589 235.056 146.43C237.041 150.271 239.861 153.615 243.307 156.212C245.211 157.534 247.322 158.525 249.553 159.143C246.099 159.384 238.992 158.718 233.987 150.52Z" fill="#263238"/>
<path d="M234.227 128.232C234.227 128.232 233.07 136.813 243.927 145.224C254.784 153.635 265.077 150.322 265.077 150.322" stroke="white" stroke-width="0.5" stroke-linecap="round" stroke-linejoin="round"/>
<path d="M235.82 125.4C235.82 125.4 247.255 142.123 263.047 137.762" stroke="white" stroke-width="0.5" stroke-linecap="round" stroke-linejoin="round"/>
<path d="M230.166 119.835C228.363 118.916 226.342 118.511 224.326 118.666C222.309 118.821 220.374 119.529 218.731 120.713C212.654 124.777 209.608 134.378 209.608 134.378" stroke="white" stroke-width="0.5" stroke-linecap="round" stroke-linejoin="round"/>
<path d="M230.462 124.494C230.462 124.494 225.541 123.177 222.495 126.236C221.011 127.586 219.742 129.157 218.731 130.894" stroke="white" stroke-width="0.5" stroke-linecap="round" stroke-linejoin="round"/>
<path d="M202 22H82V90.7279H202V22Z" fill="white"/>
<path opacity="0.1" d="M122.164 39.9155H88.6932V41.7866H122.164V39.9155Z" fill="#6C63FF"/>
<path opacity="0.1" d="M94.893 30.021H91.6692V39.9156H94.893V30.021Z" fill="#6C63FF"/>
<path opacity="0.1" d="M99.6037 30.021H96.3799V39.9156H99.6037V30.021Z" fill="#6C63FF"/>
<path opacity="0.1" d="M104.314 30.021H101.091V39.9156H104.314V30.021Z" fill="#6C63FF"/>
<path opacity="0.1" d="M109.025 30.021H105.801V39.9156H109.025V30.021Z" fill="#6C63FF"/>
<path opacity="0.1" d="M113.736 30.021H110.512V39.9156H113.736V30.021Z" fill="#6C63FF"/>
<path opacity="0.1" d="M118.447 30.021H115.223V39.9156H118.447V30.021Z" fill="#6C63FF"/>
<path opacity="0.1" d="M94.893 31.8945H91.6692V32.9637H94.893V31.8945Z" fill="#6C63FF"/>
<path opacity="0.1" d="M99.6037 31.8945H96.3799V32.9637H99.6037V31.8945Z" fill="#6C63FF"/>
<path opacity="0.1" d="M104.314 31.8945H101.091V32.9637H104.314V31.8945Z" fill="#6C63FF"/>
<path opacity="0.1" d="M109.025 31.8945H105.801V32.9637H109.025V31.8945Z" fill="#6C63FF"/>
<path opacity="0.1" d="M113.736 31.8945H110.512V32.9637H113.736V31.8945Z" fill="#6C63FF"/>
<path opacity="0.1" d="M118.447 31.8945H115.223V32.9637H118.447V31.8945Z" fill="#6C63FF"/>
<path opacity="0.1" d="M94.893 36.708H91.6692V37.7772H94.893V36.708Z" fill="#6C63FF"/>
<path opacity="0.1" d="M99.6037 36.708H96.3799V37.7772H99.6037V36.708Z" fill="#6C63FF"/>
<path opacity="0.1" d="M104.314 36.708H101.091V37.7772H104.314V36.708Z" fill="#6C63FF"/>
<path opacity="0.1" d="M109.025 36.708H105.801V37.7772H109.025V36.708Z" fill="#6C63FF"/>
<path opacity="0.1" d="M113.736 36.708H110.512V37.7772H113.736V36.708Z" fill="#6C63FF"/>
<path opacity="0.1" d="M118.447 36.708H115.223V37.7772H118.447V36.708Z" fill="#6C63FF"/>
<path opacity="0.1" d="M195.552 44.73H162.082V46.601H195.552V44.73Z" fill="#6C63FF"/>
<path opacity="0.1" d="M168.282 34.835H165.058V44.7296H168.282V34.835Z" fill="#6C63FF"/>
<path opacity="0.1" d="M172.992 34.835H169.769V44.7296H172.992V34.835Z" fill="#6C63FF"/>
<path opacity="0.1" d="M177.703 34.835H174.479V44.7296H177.703V34.835Z" fill="#6C63FF"/>
<path opacity="0.1" d="M182.414 34.835H179.19V44.7296H182.414V34.835Z" fill="#6C63FF"/>
<path opacity="0.1" d="M187.124 34.835H183.901V44.7296H187.124V34.835Z" fill="#6C63FF"/>
<path opacity="0.1" d="M191.835 34.835H188.611V44.7296H191.835V34.835Z" fill="#6C63FF"/>
<path opacity="0.1" d="M168.282 36.708H165.058V37.7772H168.282V36.708Z" fill="#6C63FF"/>
<path opacity="0.1" d="M172.992 36.708H169.769V37.7772H172.992V36.708Z" fill="#6C63FF"/>
<path opacity="0.1" d="M177.703 36.708H174.479V37.7772H177.703V36.708Z" fill="#6C63FF"/>
<path opacity="0.1" d="M182.414 36.708H179.19V37.7772H182.414V36.708Z" fill="#6C63FF"/>
<path opacity="0.1" d="M187.124 36.708H183.901V37.7772H187.124V36.708Z" fill="#6C63FF"/>
<path opacity="0.1" d="M191.835 36.708H188.611V37.7772H191.835V36.708Z" fill="#6C63FF"/>
<path opacity="0.1" d="M168.282 41.5225H165.058V42.5916H168.282V41.5225Z" fill="#6C63FF"/>
<path opacity="0.1" d="M172.992 41.5225H169.769V42.5916H172.992V41.5225Z" fill="#6C63FF"/>
<path opacity="0.1" d="M177.703 41.5225H174.479V42.5916H177.703V41.5225Z" fill="#6C63FF"/>
<path opacity="0.1" d="M182.414 41.5225H179.19V42.5916H182.414V41.5225Z" fill="#6C63FF"/>
<path opacity="0.1" d="M187.124 41.5225H183.901V42.5916H187.124V41.5225Z" fill="#6C63FF"/>
<path opacity="0.1" d="M191.835 41.5225H188.611V42.5916H191.835V41.5225Z" fill="#6C63FF"/>
<path opacity="0.1" d="M195.552 58.3687H162.082V60.2397H195.552V58.3687Z" fill="#6C63FF"/>
<path opacity="0.1" d="M168.282 48.4736H165.058V58.3683H168.282V48.4736Z" fill="#6C63FF"/>
<path opacity="0.1" d="M172.992 48.4736H169.769V58.3683H172.992V48.4736Z" fill="#6C63FF"/>
<path opacity="0.1" d="M177.703 48.4736H174.479V58.3683H177.703V48.4736Z" fill="#6C63FF"/>
<path opacity="0.1" d="M182.414 48.4736H179.19V58.3683H182.414V48.4736Z" fill="#6C63FF"/>
<path opacity="0.1" d="M187.124 48.4736H183.901V58.3683H187.124V48.4736Z" fill="#6C63FF"/>
<path opacity="0.1" d="M191.835 48.4736H188.611V58.3683H191.835V48.4736Z" fill="#6C63FF"/>
<path opacity="0.1" d="M168.282 50.3452H165.058V51.4144H168.282V50.3452Z" fill="#6C63FF"/>
<path opacity="0.1" d="M172.992 50.3452H169.769V51.4144H172.992V50.3452Z" fill="#6C63FF"/>
<path opacity="0.1" d="M177.703 50.3452H174.479V51.4144H177.703V50.3452Z" fill="#6C63FF"/>
<path opacity="0.1" d="M182.414 50.3452H179.19V51.4144H182.414V50.3452Z" fill="#6C63FF"/>
<path opacity="0.1" d="M187.124 50.3452H183.901V51.4144H187.124V50.3452Z" fill="#6C63FF"/>
<path opacity="0.1" d="M191.835 50.3452H188.611V51.4144H191.835V50.3452Z" fill="#6C63FF"/>
<path opacity="0.1" d="M168.282 55.1587H165.058V56.2279H168.282V55.1587Z" fill="#6C63FF"/>
<path opacity="0.1" d="M172.992 55.1587H169.769V56.2279H172.992V55.1587Z" fill="#6C63FF"/>
<path opacity="0.1" d="M177.703 55.1587H174.479V56.2279H177.703V55.1587Z" fill="#6C63FF"/>
<path opacity="0.1" d="M182.414 55.1587H179.19V56.2279H182.414V55.1587Z" fill="#6C63FF"/>
<path opacity="0.1" d="M187.124 55.1587H183.901V56.2279H187.124V55.1587Z" fill="#6C63FF"/>
<path opacity="0.1" d="M191.835 55.1587H188.611V56.2279H191.835V55.1587Z" fill="#6C63FF"/>
<path opacity="0.1" d="M109.222 61.0777C108.971 60.7339 108.743 60.3718 108.538 59.9941L113.359 59.1417L108.137 59.1874C107.637 58.014 107.364 56.7429 107.335 55.4519C107.307 54.1609 107.522 52.8772 107.969 51.6792L114.962 55.5922L108.514 50.48C109.116 49.3513 109.928 48.3686 110.898 47.5934C111.868 46.8182 112.976 46.2671 114.153 45.9743C115.33 45.6816 116.549 45.6537 117.736 45.8922C118.924 46.1308 120.052 46.6306 121.052 47.3607C122.052 48.0908 122.902 49.0353 123.548 50.1354C124.194 51.2354 124.623 52.4674 124.809 53.7543C124.994 55.0413 124.931 56.3556 124.624 57.6152C124.317 58.8748 123.773 60.0527 123.026 61.0753C123.418 61.6093 123.755 62.1874 124.032 62.7995L117.781 66.3032L124.45 63.8951C124.919 65.3878 125.035 66.9831 124.788 68.5363C124.541 70.0896 123.938 71.5518 123.034 72.7904C124.054 74.1881 124.688 75.8669 124.865 77.6351C125.041 79.4032 124.753 81.1893 124.033 82.789C123.313 84.3888 122.19 85.7376 120.792 86.6813C119.395 87.625 117.779 88.1254 116.13 88.1254C114.481 88.1254 112.866 87.625 111.468 86.6813C110.071 85.7376 108.948 84.3888 108.228 82.789C107.507 81.1893 107.219 79.4032 107.396 77.6351C107.572 75.8669 108.207 74.1881 109.226 72.7904C108.008 71.1204 107.346 69.0575 107.346 66.9329C107.346 64.8083 108.008 62.7453 109.226 61.0753L109.222 61.0777Z" fill="#6C63FF"/>
<path opacity="0.1" d="M124.91 66.9367C124.912 69.0614 124.25 71.1249 123.03 72.7931C124.05 74.1907 124.684 75.8695 124.86 77.6377C125.037 79.4059 124.749 81.1919 124.028 82.7916C123.308 84.3914 122.185 85.7402 120.788 86.6839C119.39 87.6276 117.775 88.128 116.126 88.128C114.477 88.128 112.862 87.6276 111.464 86.6839C110.067 85.7402 108.943 84.3914 108.223 82.7916C107.503 81.1919 107.215 79.4059 107.391 77.6377C107.568 75.8695 108.202 74.1907 109.222 72.7931C108.045 71.1821 124.91 65.8723 124.91 66.9367Z" fill="#6C63FF"/>
<path opacity="0.2" d="M117.536 90.6486C117.551 90.6751 117.562 90.7016 117.578 90.7281H114.595C114.611 90.7016 114.622 90.6751 114.638 90.6486C114.382 90.1666 114.249 89.6197 114.254 89.0641C114.253 88.684 114.315 88.3067 114.435 87.9492C114.6 87.9781 114.805 88.0094 115.042 88.0359C115.734 88.1105 116.431 88.1105 117.123 88.0359C117.319 88.0142 117.527 87.9829 117.737 87.9492C117.737 87.9548 117.737 87.9605 117.737 87.9661C117.854 88.3182 117.914 88.6898 117.913 89.0641C117.92 89.619 117.789 90.1659 117.536 90.6486Z" fill="#3F3D56"/>
<path opacity="0.1" d="M106.817 90.7326H90.2292C90.1912 90.6291 90.1578 90.5207 90.1287 90.4148C89.5439 88.3858 89.6123 86.2031 90.323 84.2213C88.7019 83.0135 87.5044 81.253 86.9229 79.2225C86.3414 77.1921 86.4098 75.0098 87.117 73.0263C86.7834 72.7766 86.4656 72.5031 86.1659 72.2076L90.5373 69.8573L85.5699 71.5574C84.7704 70.5954 84.1616 69.4674 83.7808 68.2425C83.4 67.0177 83.2551 65.7218 83.3552 64.4344L91.1066 65.9443L83.5472 63.1124C83.8144 61.8423 84.3215 60.6453 85.0368 59.596C85.7522 58.5468 86.6604 57.6678 87.7047 57.0141C88.7491 56.3604 89.9071 55.9458 91.1067 55.7964C92.3062 55.647 93.5214 55.766 94.6764 56.1458C95.8314 56.5256 96.9014 57.1581 97.8196 58.0039C98.7378 58.8497 99.4845 59.8906 100.013 61.0616C100.542 62.2325 100.841 63.5085 100.892 64.8097C100.943 66.111 100.744 67.4095 100.309 68.6244C100.828 69.0126 101.308 69.459 101.74 69.9561L96.7215 75.2971L102.435 70.8663C103.291 72.144 103.838 73.6318 104.027 75.1952C104.215 76.7585 104.04 78.3479 103.515 79.8194C105.097 80.9985 106.276 82.7043 106.872 84.6755C107.469 86.6467 107.449 88.7744 106.817 90.7326Z" fill="#6C63FF"/>
<path opacity="0.1" d="M106.817 90.7326H90.2292C90.1913 90.629 90.1578 90.5207 90.1287 90.4147C89.5439 88.3857 89.6123 86.203 90.323 84.2212C88.7602 83.0533 103.419 72.6121 103.718 73.6258C104.301 75.656 104.232 77.8387 103.524 79.8217C105.103 81.002 106.281 82.708 106.875 84.6786C107.47 86.6492 107.45 88.7757 106.817 90.7326Z" fill="#6C63FF"/>
<path opacity="0.1" d="M181.932 77.8952C180.924 79.7209 179.374 81.1261 177.533 81.8829C177.612 82.5595 177.625 83.2431 177.571 83.9225L170.534 83.4674L177.406 85.088C176.952 87.3527 175.746 89.3602 174.015 90.7325H164.437V90.9998H154.688C154.708 90.9083 154.728 90.8192 154.75 90.7325C155.108 89.2799 155.781 87.9397 156.712 86.8217C157.644 85.7036 158.807 84.8397 160.108 84.3006C159.859 82.1923 160.274 80.0548 161.286 78.2312C162.298 76.4077 163.849 75.0037 165.69 74.2446C165.637 73.8111 165.613 73.3742 165.616 72.9371L170.159 74.8635L165.667 72.0172C165.796 70.7346 166.165 69.4936 166.753 68.37C167.34 67.2463 168.134 66.2636 169.085 65.4818L173.225 72.7059L170.124 64.7594C171.813 63.7459 173.765 63.3618 175.677 63.6669C177.59 63.9719 179.355 64.9489 180.701 66.4464C182.046 67.9439 182.895 69.8783 183.117 71.9495C183.34 74.0208 182.922 76.1132 181.929 77.9024L181.932 77.8952Z" fill="#6C63FF"/>
<path opacity="0.1" d="M176.357 87.9511C175.759 89.0398 174.962 89.986 174.015 90.7324H164.437V90.9997H154.688C154.708 90.9082 154.728 90.8191 154.75 90.7324C155.108 89.2799 155.781 87.9396 156.712 86.8216C157.644 85.7036 158.807 84.8396 160.108 84.3005C160.026 83.6094 161.919 83.7034 164.439 84.1609C169.367 85.0519 176.692 87.3467 176.357 87.9511Z" fill="#6C63FF"/>
<path d="M134.849 62.6694C134.849 62.6694 136.044 69.6936 133.365 71.9837C130.685 74.2737 135.628 88.0164 143.84 86.4151C152.051 84.8137 155.378 73.2816 155.378 73.2816C155.378 73.2816 147.166 71.4515 150.209 62.1372L134.849 62.6694Z" fill="#EFB7B9"/>
<path opacity="0.1" d="M155.076 72.4963C154.286 76.4503 151.803 83.8574 142.848 84.0549C133.313 84.2571 132.764 74.0278 132.822 71.1261C132.965 71.0499 133.099 70.9562 133.222 70.8468C133.929 70.0834 133.789 71.0755 133.789 71.0755C133.789 71.0755 132.585 82.7569 143.556 81.9117C154.527 81.0665 153.183 71.8341 153.183 71.8341C153.183 71.7787 153.987 72.0628 155.076 72.4963Z" fill="black"/>
<path opacity="0.1" d="M134.849 62.6694C134.849 62.6694 136.044 69.6936 133.364 71.9837C130.685 74.2737 135.628 88.0164 143.84 86.4151C152.051 84.8137 155.377 73.2816 155.377 73.2816C155.377 73.2816 147.166 71.4515 150.209 62.1372L134.849 62.6694Z" fill="black"/>
<path d="M142.105 67.8228C149.61 67.8228 155.694 61.2603 155.694 53.1651C155.694 45.0698 149.61 38.5073 142.105 38.5073C134.6 38.5073 128.515 45.0698 128.515 53.1651C128.515 61.2603 134.6 67.8228 142.105 67.8228Z" fill="#EFB7B9"/>
<path d="M164.437 81.0303V90.9947H119.563V81.4854C119.563 80.2792 119.893 79.0998 120.511 78.0943C121.128 77.0888 122.007 76.3018 123.037 75.8313L124.325 75.2413C127.58 73.7459 131.534 71.8893 132.826 71.1164C132.968 71.0403 133.101 70.9474 133.224 70.8394C133.932 70.0761 133.791 71.0682 133.791 71.0682C133.791 71.0682 133.771 71.256 133.757 71.5835C133.682 73.8254 133.981 82.6436 143.558 81.9092C152.904 81.1868 153.315 74.3865 153.23 72.3854C153.224 72.2 153.21 72.0151 153.185 71.8316C153.185 71.7786 153.989 72.0723 155.078 72.4962C157.036 73.274 159.914 74.5261 160.689 75.1161C160.93 75.2967 161.222 75.4894 161.539 75.6796C162.422 76.2109 163.156 76.9873 163.667 77.9282C164.177 78.8691 164.445 79.9402 164.442 81.0303H164.437Z" fill="#6C63FF"/>
<path d="M126.019 53.8897C126.912 53.5767 127.977 54.1064 128.475 54.8529C128.973 55.5994 129.042 56.5024 129.102 57.3669C129.694 57.5018 130.027 56.7794 130.08 56.2376C130.304 54.0198 130.315 51.761 131.005 49.6227C131.694 47.4843 133.201 45.4134 135.519 44.5899C136.307 44.295 137.149 44.2083 137.975 44.337C138.464 44.4261 138.926 44.6091 139.415 44.6958C141.105 44.9968 142.947 44.1323 144.534 44.7344C145.527 45.1124 146.168 45.9865 146.624 46.8631C146.827 47.3337 147.101 47.7643 147.436 48.1369C148.106 48.7871 149.169 48.9581 150.133 49.1627C151.098 49.3674 152.156 49.719 152.569 50.5233C152.942 51.2457 152.667 52.0885 152.542 52.8783C152.351 54.1228 152.545 55.4005 153.094 56.5145C153.272 56.8805 153.634 57.2947 154.06 57.1767C154.254 57.1061 154.418 56.9625 154.522 56.7722C155.639 55.0865 155.603 52.9 156.994 51.395C157.46 50.8917 158.061 50.4968 158.514 49.9839C158.857 49.6103 159.109 49.1507 159.246 48.6463C159.384 48.1419 159.403 47.6086 159.302 47.0942C159.052 45.936 158.186 44.9703 157.501 43.9638C156.6 42.6739 155.943 41.2051 155.569 39.6413C155.503 39.4603 155.503 39.259 155.569 39.0779C155.701 38.8936 155.869 38.7444 156.063 38.642C156.442 38.371 156.716 37.9602 156.834 37.4867C156.952 37.0132 156.905 36.5095 156.704 36.0702C156.315 35.1961 155.442 34.5483 154.484 34.1582C153.527 33.7681 152.475 33.602 151.435 33.4358C150.752 33.5442 149.95 33.1228 149.738 32.5328C149.644 32.2703 149.644 31.9862 149.548 31.7237C149.363 31.2204 148.829 30.864 148.256 30.7412C147.672 30.6381 147.074 30.6834 146.51 30.8737C145.867 31.0687 145.121 31.3553 144.561 31.023C144.266 30.8424 144.101 30.5149 143.784 30.368C143.141 30.0718 142.462 30.669 141.998 31.1626C141.547 31.6769 140.996 32.076 140.384 32.3305C139.738 32.5713 138.944 32.5713 138.388 32.1885C137.941 31.8826 137.718 31.3914 137.363 31.0013C136.78 30.3584 135.858 30.0092 134.938 29.9297C134.016 29.8774 133.092 29.9864 132.201 30.2524C130.502 30.6965 128.878 31.428 127.39 32.4196C126.647 32.9229 125.934 33.5105 125.546 34.269C125.27 34.8605 125.128 35.514 125.131 36.1762C125.062 38.2495 125.7 40.436 127.363 41.8881C126.35 42.3456 126.006 43.4653 125.769 44.4598C125.39 46.0443 125.008 47.6577 125.151 49.2759C125.222 50.1115 125.434 50.9471 125.32 51.7779C125.267 52.18 125.137 52.5749 125.169 52.9819C125.21 53.2076 125.313 53.4147 125.465 53.5765C125.617 53.7383 125.81 53.8474 126.019 53.8897Z" fill="#454B69"/>
<g opacity="0.1">
<path opacity="0.1" d="M159.106 46.4683C158.959 46.8115 158.76 47.1263 158.519 47.4002C158.072 47.9131 157.465 48.308 156.998 48.8137C155.607 50.3163 155.636 52.51 154.527 54.1908C154.423 54.3806 154.259 54.5234 154.065 54.593C153.638 54.711 153.277 54.2968 153.098 53.9308C152.881 53.4856 152.718 53.0122 152.614 52.5221C152.59 52.6441 152.567 52.7669 152.547 52.8905C152.356 54.135 152.549 55.4126 153.098 56.5267C153.277 56.8927 153.638 57.3069 154.065 57.1889C154.259 57.1182 154.423 56.9746 154.527 56.7843C155.643 55.0987 155.607 52.9122 156.998 51.4072C157.465 50.9039 158.066 50.509 158.519 49.996C158.862 49.6225 159.113 49.1629 159.251 48.6585C159.388 48.1541 159.408 47.6208 159.307 47.1064C159.259 46.8872 159.192 46.6734 159.106 46.4683Z" fill="black"/>
<path opacity="0.1" d="M156.072 36.07C155.878 36.1708 155.709 36.3192 155.578 36.5035C155.513 36.6846 155.513 36.8859 155.578 37.0669C155.707 37.6128 155.872 38.1479 156.072 38.6683C156.455 38.3951 156.732 37.9789 156.848 37.4994C156.965 37.02 156.913 36.511 156.704 36.07C156.641 35.9266 156.566 35.7896 156.48 35.6606C156.364 35.8184 156.226 35.9565 156.072 36.07Z" fill="black"/>
<path opacity="0.1" d="M127.361 39.3162C126.21 38.2894 125.45 36.8402 125.229 35.2466C125.171 35.5641 125.138 35.8863 125.131 36.2098C125.059 37.7399 125.434 39.2558 126.202 40.5443C126.436 39.9956 126.848 39.5585 127.361 39.3162Z" fill="black"/>
<path opacity="0.1" d="M152.546 50.2942C152.671 49.5044 152.946 48.664 152.573 47.9392C152.16 47.1349 151.104 46.7809 150.137 46.5786C149.171 46.3764 148.115 46.203 147.44 45.5528C147.106 45.1801 146.831 44.7496 146.628 44.2789C146.181 43.4024 145.532 42.5283 144.538 42.1502C142.951 41.5482 141.109 42.4127 139.419 42.1117C138.93 42.025 138.468 41.842 137.979 41.7529C137.154 41.6203 136.312 41.7029 135.523 41.9937C133.206 42.8173 131.699 44.8834 131.009 47.0265C130.319 49.1697 130.303 51.4236 130.085 53.6414C130.031 54.1832 129.698 54.9056 129.107 54.7708C129.046 53.9063 128.973 53.0033 128.479 52.2568C127.986 51.5103 126.932 50.9781 126.024 51.2936C125.748 51.2266 125.505 51.0558 125.336 50.812C125.367 51.1325 125.363 51.4558 125.323 51.7752C125.269 52.1773 125.139 52.5722 125.171 52.9792C125.212 53.205 125.314 53.4124 125.466 53.5746C125.617 53.7369 125.81 53.8465 126.019 53.8894C126.912 53.5764 127.977 54.1062 128.475 54.8527C128.973 55.5991 129.042 56.5022 129.102 57.3666C129.694 57.5015 130.027 56.7791 130.08 56.2373C130.303 54.0195 130.315 51.7607 131.004 49.6224C131.694 47.484 133.201 45.4131 135.519 44.5896C136.307 44.2947 137.149 44.208 137.974 44.3367C138.463 44.4258 138.926 44.6089 139.414 44.6955C141.104 44.9965 142.946 44.1321 144.534 44.7341C145.527 45.1121 146.168 45.9863 146.623 46.8628C146.826 47.3334 147.101 47.764 147.436 48.1366C148.106 48.7868 149.168 48.9578 150.133 49.1625C151.097 49.3671 152.078 49.6946 152.52 50.4411C152.531 50.4002 152.537 50.3472 152.546 50.2942Z" fill="black"/>
<path opacity="0.1" d="M125.328 49.2014C125.38 48.5475 125.344 47.8888 125.22 47.2461C125.125 47.9241 125.104 48.612 125.158 49.2953C125.171 49.4711 125.194 49.6445 125.216 49.8203C125.243 49.6132 125.292 49.4085 125.328 49.2014Z" fill="black"/>
</g>
<path d="M179.525 79.191C188.652 79.191 196.05 71.761 196.05 62.5955C196.05 53.4301 188.652 46 179.525 46C170.399 46 163 53.4301 163 62.5955C163 71.761 170.399 79.191 179.525 79.191Z" fill="#263238" stroke="#263238" stroke-linecap="round" stroke-linejoin="round"/>
<path d="M175.821 72.6788C168.909 68.551 169.073 56.0103 176.091 52.0653L193.842 62.5484L175.821 72.6788Z" fill="white" stroke="#263238" stroke-linecap="round" stroke-linejoin="round"/>
<path d="M355.222 28H298V78H355.222V28Z" fill="#F2F2F2"/>
<path d="M363 35.9165H314.111V36.7498H363V35.9165Z" fill="#3F3D56"/>
<path d="M363 45.0835H314.111V45.9168H363V45.0835Z" fill="#3F3D56"/>
<path d="M363 54.25H314.111V55.0833H363V54.25Z" fill="#3F3D56"/>
</svg>
